<?xml version="1.0" encoding="utf-8"?>
<svg xmlns="http://www.w3.org/2000/svg" xmlns:xlink="http://www.w3.org/1999/xlink" width="1024"
    height="1024" viewBox="0 0 1024 1024">
    <defs>
        <linearGradient id="gradient_0" gradientUnits="userSpaceOnUse" x1="516.38544" y1="888.22705"
            x2="509.18332" y2="258.86108">
            <stop offset="0" stop-color="#0038D2" />
            <stop offset="1" stop-color="#558EFC" />
        </linearGradient>
    </defs>
    <rect width="1024" height="1024" fill="url(#gradient_0)" />
    <path fill="#FEFEFE"
        d="M729.878 312.093C742.551 311.376 748.652 318.894 747.003 331.168C744.333 351.044 741.325 370.866 738.511 390.724L720.993 514.382L707.281 610.811C705.14 625.77 703.527 642.932 700.553 657.446C688.885 714.391 608.232 743.789 560.609 712.917C498.714 672.792 543.161 600.207 601.063 587.877C630.821 581.54 649.474 584.12 675.229 600.473C677.253 590.691 678.607 576.731 679.979 566.456L688.413 504.43L699.433 424.653C701.426 410.298 703.513 395.974 705.274 381.572C706.284 373.31 705.826 366.946 695.777 366.422C693.242 366.29 687.278 371.195 685.406 372.937C675.113 382.513 665.216 392.513 655.018 402.203L591.397 461.939C568.05 484.626 543.766 506.79 520.35 529.47C511.633 537.912 497.229 550.177 490.215 559.267C487.404 562.91 481.049 584.597 479.13 590.507L451.484 674.918C447.597 686.782 444.431 699.719 439.335 711.07C437.928 714.203 434.161 717.771 430.699 718.555C411.754 722.846 410.123 702.323 407.072 689.386L400.154 660.962C392.685 630.172 384.301 597.73 377.739 566.866C357.277 559.659 336.775 552.567 316.235 545.589C311.699 544.026 307.154 542.492 302.612 540.944C297.827 539.221 292.727 537.855 288.163 535.58C280.951 531.985 278.923 523.264 282.464 516.337C284.142 513.054 286.702 511.106 289.954 509.62C299.639 505.196 309.377 500.903 319.075 496.513C347.296 483.671 375.615 471.047 404.032 458.642L570.973 383.358L686.789 331.139C693.057 328.383 699.137 325.803 705.347 322.911C713.283 319.215 721.604 314.726 729.878 312.093Z" />
</svg>
